<svg width="51" height="47" viewBox="0 0 51 47" xmlns="http://www.w3.org/2000/svg" xmlns:sketch="http://www.bohemiancoding.com/sketch/ns"><title>chromecast_cc_button</title><desc>Created with Sketch.</desc><g sketch:type="MSShapeGroup" fill="#fff"><path d="M45.071 4.833v26.527h-16.804l-2.221 1.157-6.958 4.506v-5.664h-13.681v-26.527h39.663m4.967-4.521h-49.519v35.534h12.981v10.771l16.806-10.771h19.733v-35.534"/><path d="M18.521 26.364c-1.185 0-2.285-.206-3.302-.618-1.013-.412-1.89-.975-2.629-1.689-.738-.714-1.315-1.557-1.731-2.528-.415-.972-.623-2.009-.623-3.113v-.044c0-1.104.208-2.138.623-3.102.415-.964.992-1.811 1.731-2.539.738-.729 1.623-1.303 2.654-1.722 1.029-.42 2.169-.629 3.415-.629.754 0 1.442.059 2.065.177s1.188.28 1.696.486c.508.206.975.456 1.408.751.431.294.831.618 1.2.972l-2.262 2.495c-.631-.545-1.273-.972-1.927-1.281-.654-.309-1.388-.464-2.204-.464-.677 0-1.304.125-1.881.375s-1.073.596-1.488 1.038c-.415.442-.738.953-.969 1.535-.231.581-.346 1.203-.346 1.866v.044c0 .662.115 1.288.346 1.877.231.589.55 1.104.958 1.546.408.442.9.791 1.477 1.049.577.258 1.21.386 1.904.386.923 0 1.704-.162 2.342-.486.638-.324 1.273-.765 1.904-1.325l2.262 2.186c-.415.427-.846.81-1.292 1.148-.448.339-.933.629-1.465.872-.531.243-1.112.427-1.742.552-.631.125-1.338.188-2.123.188"/><path d="M33.821 26.364c-1.185 0-2.285-.206-3.3-.618-1.015-.412-1.892-.975-2.631-1.689-.738-.714-1.315-1.557-1.731-2.528-.415-.972-.623-2.009-.623-3.113v-.044c0-1.104.208-2.138.623-3.102.415-.964.992-1.811 1.731-2.539.738-.729 1.623-1.303 2.654-1.722 1.029-.42 2.169-.629 3.415-.629.754 0 1.442.059 2.065.177s1.188.28 1.696.486c.508.206.975.456 1.408.751.431.294.831.618 1.2.972l-2.262 2.495c-.631-.545-1.273-.972-1.927-1.281-.654-.309-1.388-.464-2.204-.464-.677 0-1.304.125-1.881.375s-1.073.596-1.488 1.038c-.415.442-.738.953-.969 1.535-.231.581-.346 1.203-.346 1.866v.044c0 .662.115 1.288.346 1.877.231.589.55 1.104.958 1.546.408.442.9.791 1.477 1.049.579.258 1.212.386 1.904.386.923 0 1.704-.162 2.342-.486.638-.324 1.273-.765 1.904-1.325l2.262 2.186c-.415.427-.846.81-1.292 1.148-.448.339-.935.629-1.465.872-.531.243-1.112.427-1.742.552-.631.125-1.338.188-2.123.188"/></g></svg>