<svg width="40" height="30" viewBox="0 0 40 30" xmlns="http://www.w3.org/2000/svg" xmlns:sketch="http://www.bohemiancoding.com/sketch/ns"><title>chromecast_connected_button</title><desc>Created with Sketch.</desc><g sketch:type="MSShapeGroup" fill="#fff"><path d="M0 13.968v2.936c6.989.689 12.561 6.193 13.258 13.096h2.972c-.713-8.53-7.594-15.328-16.23-16.032"/><path d="M0 19.858v2.958c3.715.619 6.647 3.515 7.273 7.185h2.994c-.67-5.292-4.909-9.481-10.267-10.142"/><path d="M0 25.801v4.199h4.25c-.536-2.055-2.17-3.669-4.25-4.199"/><path d="M5.926 2.927v9.4c5.494 2.077 9.864 6.393 11.966 11.82h19.145v-21.22h-31.111"/><path d="M2.963 0v11.452c.501.108.996.234 1.481.377v-10.365h34.074v24.146h-20.123c.144.48.272.969.381 1.463h21.223v-27.073h-37.037"/></g></svg>